<?xml version="1.0" encoding="utf-8"?>
<!-- Generator: Adobe Illustrator 17.0.0, SVG Export Plug-In . SVG Version: 6.00 Build 0)  -->
<!DOCTYPE svg PUBLIC "-//W3C//DTD SVG 1.1//EN" "http://www.w3.org/Graphics/SVG/1.1/DTD/svg11.dtd">
<svg version="1.1" id="LANDL_VISUELL_KOMMUNIKATION_x0D__x0D__x0D_"
	 xmlns="http://www.w3.org/2000/svg" xmlns:xlink="http://www.w3.org/1999/xlink" x="0px" y="0px" width="346.663px"
	 height="228.604px" viewBox="0 0 346.663 228.604" enable-background="new 0 0 346.663 228.604" xml:space="preserve">
<g>
	<path fill="#FFFFFF" d="M0.033,6.238h22.676v152.748h53.492v23.843H0.033V6.238z"/>
	<path fill="#FFFFFF" d="M166.903,87.242l34.866,39.144l18.966-21.874l16.216,15.248l-19.984,23.51l35.366,39.28h-30.016
		l-19.992-22.093c-18.884,19.07-37.327,28.608-55.33,28.608c-15.458,0-28.806-5.062-40.046-15.182
		c-11.244-10.123-16.863-22.117-16.863-35.982c0-10.352,2.501-18.879,7.504-25.583c5.004-6.7,16.505-16.523,34.5-29.464
		c-1.666-2.587-3.069-4.66-4.208-6.236c-7.715-10.344-12.296-17.942-13.742-22.789c-1.446-4.85-2.169-9.167-2.169-12.958
		c0-10.253,3.91-19.627,11.733-28.123C131.526,4.249,141.985,0,155.081,0c11.425,0,21.137,4.068,29.136,12.207
		c7.997,8.138,11.997,17.989,11.997,29.543C196.214,58.395,186.444,73.559,166.903,87.242z M187.187,143.332L147.804,99.41
		c-14.93,10.162-24.371,17.782-28.322,22.863c-3.954,5.08-5.929,10.21-5.929,15.38c0,7.76,3.271,14.435,9.814,20.022
		c6.542,5.586,14.423,8.382,23.644,8.382c6.938,0,13.414-1.826,19.43-5.475C172.455,156.938,179.372,151.185,187.187,143.332z
		 M151.39,70.414c7.733-5.544,13.534-10.486,17.402-14.83c3.867-4.341,5.801-8.962,5.801-13.86c0-5.637-1.825-10.166-5.471-13.587
		c-3.648-3.417-8.592-5.127-14.831-5.127c-5.801,0-10.569,1.662-14.304,4.99c-3.736,3.325-5.603,7.531-5.603,12.614
		C134.383,48.007,140.052,57.939,151.39,70.414z"/>
	<path fill="#FFFFFF" d="M270.519,6.238h22.676v152.748h53.467v23.843h-76.143V6.238z"/>
</g>
<g>
	<path fill="#FFFFFF" d="M0,211.048h2.161v14.512h5.214v2.265H0V211.048z"/>
	<path fill="#FFFFFF" d="M15.098,210.402l7.557,17.423h-2.29l-1.858-4.293h-6.793l-1.837,4.293H7.603L15.098,210.402z
		 M15.093,215.639l-2.561,5.985h5.149L15.093,215.639z"/>
	<path fill="#FFFFFF" d="M24.076,210.376l11.835,12.751v-12.079h2.187v17.555l-11.836-12.696v11.918h-2.186V210.376z"/>
	<path fill="#FFFFFF" d="M40.927,211.048h3.881c3.074,0,5.361,0.852,6.861,2.555c1.499,1.701,2.249,3.647,2.249,5.835
		c0,2.202-0.775,4.15-2.324,5.846c-1.55,1.695-3.803,2.542-6.761,2.542h-3.906V211.048z M43.113,213.287v12.274h0.125
		c1.625,0,2.848-0.074,3.669-0.229c0.82-0.156,1.599-0.491,2.336-1.007c0.737-0.519,1.324-1.205,1.76-2.062
		c0.435-0.857,0.653-1.798,0.653-2.824c0-1.295-0.348-2.457-1.043-3.507c-0.695-1.044-1.527-1.746-2.494-2.104
		c-0.966-0.361-2.267-0.541-3.901-0.541H43.113z"/>
	<path fill="#FFFFFF" d="M56.295,211.048h2.161v14.512h5.214v2.265h-7.375V211.048z"/>
	<path fill="#FFFFFF" d="M70.696,210.534h3.599l4.173,11.496l4.179-11.496h3.603l-6.245,17.292h-3.088L70.696,210.534z"/>
	<path fill="#FFFFFF" d="M87.748,210.534h3.556v17.292h-3.556V210.534z"/>
	<path fill="#FFFFFF" d="M103.403,212.103l-2.211,2.539c-1.164-0.72-2.003-1.078-2.513-1.078c-0.394,0-0.733,0.156-1.018,0.467
		c-0.285,0.314-0.427,0.683-0.427,1.113c0,0.852,0.737,1.587,2.211,2.21c1.081,0.488,1.897,0.925,2.451,1.313
		c0.552,0.39,1.015,0.936,1.388,1.627c0.372,0.694,0.559,1.445,0.559,2.252c0,1.484-0.572,2.774-1.715,3.873
		c-1.143,1.097-2.494,1.648-4.052,1.648c-1.709,0-3.396-0.844-5.062-2.531l2.336-2.858c1.047,1.134,2.028,1.7,2.94,1.7
		c0.427,0,0.838-0.203,1.231-0.598c0.394-0.398,0.591-0.818,0.591-1.255c0-0.902-0.909-1.698-2.726-2.386
		c-1.039-0.396-1.776-0.767-2.211-1.115c-0.435-0.348-0.801-0.849-1.099-1.513c-0.298-0.664-0.446-1.339-0.446-2.036
		c0-1.535,0.477-2.782,1.432-3.742c0.954-0.957,2.203-1.434,3.744-1.434C100.63,210.297,102.164,210.901,103.403,212.103z"/>
	<path fill="#FFFFFF" d="M105.93,210.534h3.506v10.576c0,0.983,0.26,1.774,0.779,2.37c0.519,0.599,1.202,0.896,2.048,0.896
		c0.972,0,1.724-0.301,2.261-0.904c0.537-0.599,0.804-1.45,0.804-2.547v-10.391h3.492v11.196c0,0.983-0.243,2.004-0.728,3.061
		c-0.487,1.06-1.234,1.869-2.244,2.431c-1.009,0.562-2.137,0.844-3.386,0.844c-2.261,0-3.916-0.662-4.962-1.983
		c-1.048-1.321-1.572-2.711-1.572-4.169V210.534z"/>
	<path fill="#FFFFFF" d="M121.827,210.534h9.284v3.425h-5.728v3.488h5.728v3.373h-5.728v3.58h5.728v3.425h-9.284V210.534z"/>
	<path fill="#FFFFFF" d="M133.739,210.534h3.531V224.1h4.862v3.726h-8.393V210.534z"/>
	<path fill="#FFFFFF" d="M144.256,210.534h3.531V224.1h4.862v3.726h-8.393V210.534z"/>
	<path fill="#FFFFFF" d="M161.333,211.048h2.187v6.813l6.79-6.813h3.048l-7.736,7.786l7.786,8.991h-2.784l-7.103-8.185v8.185h-2.187
		V211.048z"/>
	<path fill="#FFFFFF" d="M173.885,219.338c0-2.421,0.871-4.498,2.614-6.225c1.742-1.727,3.835-2.592,6.282-2.592
		c2.386,0,4.443,0.87,6.169,2.61c1.726,1.743,2.588,3.813,2.588,6.207c0,2.534-0.853,4.68-2.556,6.428
		c-1.705,1.751-3.797,2.626-6.277,2.626c-2.446,0-4.527-0.88-6.244-2.645C174.745,223.984,173.885,221.848,173.885,219.338z
		 M189.214,219.444c0-1.851-0.637-3.409-1.91-4.677c-1.272-1.266-2.838-1.901-4.699-1.901c-1.767,0-3.281,0.643-4.542,1.935
		c-1.26,1.289-1.891,2.834-1.891,4.643c0,1.833,0.647,3.383,1.94,4.651c1.295,1.266,2.879,1.901,4.755,1.901
		c1.726,0,3.214-0.646,4.467-1.938C188.587,222.761,189.214,221.223,189.214,219.444z"/>
	<path fill="#FFFFFF" d="M207.135,210.349l4.382,17.476h-2.146l-2.647-10.676l-4.56,11.322l-4.576-11.417l-2.685,10.771h-2.131
		l4.378-17.476l5.011,12.506L207.135,210.349z"/>
	<path fill="#FFFFFF" d="M226.513,210.349l4.38,17.476h-2.144l-2.65-10.676l-4.562,11.322l-4.575-11.417l-2.687,10.771h-2.131
		l4.38-17.476l5.01,12.506L226.513,210.349z"/>
	<path fill="#FFFFFF" d="M232.604,211.075h2.186v10.312c0,1.527,0.351,2.708,1.049,3.544c0.699,0.833,1.69,1.25,2.972,1.25
		c1.274,0,2.265-0.385,2.972-1.155c0.707-0.765,1.062-1.848,1.062-3.243v-10.708h2.186v10.549c0,2.054-0.559,3.694-1.677,4.925
		c-1.118,1.231-2.608,1.843-4.467,1.843c-1.901,0-3.425-0.625-4.567-1.869c-1.144-1.247-1.716-3.085-1.716-5.519V211.075z"/>
	<path fill="#FFFFFF" d="M247.63,210.376l11.836,12.751v-12.079h2.186v17.555l-11.836-12.696v11.918h-2.186V210.376z"/>
	<path fill="#FFFFFF" d="M264.416,211.048h2.162v16.778h-2.162V211.048z"/>
	<path fill="#FFFFFF" d="M269.634,211.048h2.186v6.813l6.789-6.813h3.048l-7.736,7.786l7.786,8.991h-2.785l-7.103-8.185v8.185
		h-2.186V211.048z"/>
	<path fill="#FFFFFF" d="M289.34,210.402l7.557,17.423h-2.292l-1.859-4.293h-6.792l-1.835,4.293h-2.275L289.34,210.402z
		 M289.333,215.639l-2.56,5.985h5.149L289.333,215.639z"/>
	<path fill="#FFFFFF" d="M296.18,211.048h9.787v2.291h-3.82v14.486h-2.159v-14.486h-3.808V211.048z"/>
	<path fill="#FFFFFF" d="M307.929,211.048h2.162v16.778h-2.162V211.048z"/>
	<path fill="#FFFFFF" d="M312.478,219.338c0-2.421,0.873-4.498,2.613-6.225c1.743-1.727,3.836-2.592,6.283-2.592
		c2.386,0,4.443,0.87,6.167,2.61c1.727,1.743,2.589,3.813,2.589,6.207c0,2.534-0.852,4.68-2.557,6.428
		c-1.703,1.751-3.797,2.626-6.275,2.626c-2.444,0-4.527-0.88-6.244-2.645C313.337,223.984,312.478,221.848,312.478,219.338z
		 M327.805,219.444c0-1.851-0.635-3.409-1.909-4.677c-1.274-1.266-2.84-1.901-4.699-1.901c-1.767,0-3.28,0.643-4.541,1.935
		c-1.263,1.289-1.893,2.834-1.893,4.643c0,1.833,0.649,3.383,1.943,4.651c1.292,1.266,2.879,1.901,4.754,1.901
		c1.727,0,3.214-0.646,4.467-1.938C327.18,222.761,327.805,221.223,327.805,219.444z"/>
	<path fill="#FFFFFF" d="M332.393,210.376l11.836,12.751v-12.079h2.186v17.555l-11.836-12.696v11.918h-2.186V210.376z"/>
</g>
</svg>
